<?xml version='1.0' encoding='utf-8'?>
<svg xmlns="http://www.w3.org/2000/svg" xmlns:xlink="http://www.w3.org/1999/xlink" enable-background="new 0 0 37.95 39.45" version="1.1" viewBox="0 0 37.95 39.45">
<symbol id="ar" viewBox="0 -3.9 28.2 3.9">
		<linearGradient id="ai" x2="28.2" y1="-1.9502" y2="-1.9502" gradientUnits="userSpaceOnUse">
			<stop stop-color="#fff" offset="0"/>
			<stop stop-color="#CC9C74" offset="1"/>
		</linearGradient>
		<polygon points="28.2 -3.9 0 -3.9 0 0 28.2 0" clip-rule="evenodd" fill="url(#ai)" fill-rule="evenodd"/>
</symbol>
<symbol id="as" viewBox="0 -17.944 3.5 17.944">
			<linearGradient id="aj" x1="16338" x2="16352" y1=".8408" y2=".8408" gradientTransform="matrix(7.2464e-5 1 -1 -.001 1.4067 -16354)" gradientUnits="userSpaceOnUse">
			<stop offset="0"/>
			<stop stop-color="#fff" offset="1"/>
		</linearGradient>
		<path d="m3.5-10.25c0-4.433-0.05-6.95-0.15-7.55-0.067-0.467-0.184 0.2-0.35 2-0.6 5.9-1.017 8.85-1.25 8.85-0.267 0-0.683-2.95-1.25-8.85-0.167-1.8-0.283-2.467-0.35-2-0.1 0.6-0.15 3.117-0.15 7.55 0 2.867 0.167 5.283 0.5 7.25 0.333 2 0.75 3 1.25 3 0.467 0 0.883-1 1.25-3 0.333-2 0.5-4.417 0.5-7.25z" clip-rule="evenodd" fill="url(#aj)" fill-rule="evenodd"/>
</symbol>
<symbol id="at" viewBox="0 -32.05 5.412 32.05">
			<linearGradient id="ak" x1="14.52" x2="36.42" y1="-16343" y2="-16343" gradientTransform="matrix(4.5662e-5 -1 1 -.001 16346 -6.1719)" gradientUnits="userSpaceOnUse">
			<stop stop-color="#fff" offset="0"/>
			<stop offset="1"/>
		</linearGradient>
		<path d="m4.75-2.5c-0.733-1-1.067-2.3-1-3.9v-23.15l-0.1-0.7c0-0.567 0.067-1.167 0.2-1.8-1.333 0.167-2.25 0.333-2.75 0.5-0.367 0.5-0.65 1.017-0.85 1.55l-0.25 0.7v22.75c0 1 0.2 1.8 0.6 2.4 0.533 0.6 0.917 1.066 1.15 1.4 0.467 0.6 0.733 1.517 0.8 2.75h2.85c0.067-0.967-0.15-1.8-0.65-2.5z" clip-rule="evenodd" fill="url(#ak)" fill-rule="evenodd"/>
</symbol>
<symbol id="au" viewBox="0 -5.7 30.25 5.7">
			<linearGradient id="al" x1="2050.3" x2="2074.4" y1="1623" y2="1623" gradientTransform="matrix(.9744 .2249 -.2249 .9744 -1628.7 -2048)" gradientUnits="userSpaceOnUse">
			<stop stop-color="#F59200" offset="0"/>
			<stop stop-color="#FFC800" offset="1"/>
		</linearGradient>
		<path d="m30.25-2.85c0-0.8-1.483-1.483-4.45-2.05-2.933-0.533-6.5-0.8-10.7-0.8s-7.767 0.267-10.7 0.8c-2.933 0.567-4.4 1.25-4.4 2.05 0 0.767 1.467 1.434 4.4 2 2.967 0.567 6.533 0.85 10.7 0.85s7.733-0.283 10.7-0.85 4.45-1.233 4.45-2z" clip-rule="evenodd" fill="url(#al)" fill-rule="evenodd"/>
</symbol>
<symbol id="av" viewBox="0 -0.95 0.95 0.95">
			<radialGradient id="am" cx=".9502" cy="-.9502" r="0" gradientTransform="matrix(1 0 0 -1 0 -1.9004)" gradientUnits="userSpaceOnUse">
			<stop stop-color="#FFCB0F" offset="0"/>
			<stop stop-color="#E09500" offset="1"/>
		</radialGradient>
		<path d="m0.95-0.5c0-0.3-0.15-0.45-0.45-0.45-0.333 0-0.5 0.15-0.5 0.45 0 0.333 0.167 0.5 0.5 0.5 0.3 0 0.45-0.167 0.45-0.5z" clip-rule="evenodd" fill="url(#am)" fill-rule="evenodd"/>
</symbol>
<symbol id="aw" viewBox="0 -1.8 1.8 1.8">
			<radialGradient id="an" cx="2.5195" cy="-2.5195" r=".6388" gradientTransform="matrix(1 0 0 -1 0 -5.0391)" gradientUnits="userSpaceOnUse">
			<stop stop-color="#FFCB0F" offset="0"/>
			<stop stop-color="#E09500" offset="1"/>
		</radialGradient>
		<path d="m1.8-0.9c0-0.267-0.083-0.483-0.25-0.65s-0.383-0.25-0.65-0.25c-0.233 0-0.45 0.083-0.65 0.25-0.167 0.167-0.25 0.383-0.25 0.65 0 0.233 0.083 0.45 0.25 0.65 0.2 0.167 0.417 0.25 0.65 0.25 0.267 0 0.483-0.083 0.65-0.25 0.167-0.2 0.25-0.417 0.25-0.65z" clip-rule="evenodd" fill="url(#an)" fill-rule="evenodd"/>
</symbol>
<symbol id="ax" viewBox="0 -0.5 0.5 0.5">
			<radialGradient id="ao" cx=".375" cy="-.375" r=".0328" gradientTransform="matrix(1 0 0 -1 0 -.75)" gradientUnits="userSpaceOnUse">
			<stop stop-color="#FFCB0F" offset="0"/>
			<stop stop-color="#E09500" offset="1"/>
		</radialGradient>
		<path d="m0.5-0.25c0-0.167-0.083-0.25-0.25-0.25s-0.25 0.083-0.25 0.25 0.083 0.25 0.25 0.25 0.25-0.083 0.25-0.25z" clip-rule="evenodd" fill="url(#ao)" fill-rule="evenodd"/>
</symbol>
<symbol id="ay" viewBox="-0.005 -3.313 1.317 3.388">
		<path d="m0.95-0.2c0-0.466 0.117-1.383 0.35-2.75 0.067-0.467-0.133-0.483-0.6-0.05-0.433 0.4-0.667 0.833-0.7 1.3-0.033 0.667 0.117 1.167 0.45 1.5 0.333 0.367 0.5 0.367 0.5 0z" clip-rule="evenodd" fill="#FFE0A1" fill-rule="evenodd"/>
</symbol>
<symbol id="az" viewBox="0 -1.75 1.75 1.75">
			<radialGradient id="ap" cx="2.3628" cy="-2.4497" r=".5673" gradientTransform="matrix(1 0 0 -1 0 -4.8994)" gradientUnits="userSpaceOnUse">
			<stop stop-color="#FFCB0F" offset="0"/>
			<stop stop-color="#E09500" offset="1"/>
		</radialGradient>
		<path d="m1.75-0.9c0-0.233-0.083-0.434-0.25-0.6-0.2-0.167-0.417-0.25-0.65-0.25s-0.433 0.083-0.6 0.25-0.25 0.367-0.25 0.6 0.083 0.45 0.25 0.65c0.167 0.167 0.367 0.25 0.6 0.25 0.267 0 0.483-0.083 0.65-0.25 0.167-0.2 0.25-0.417 0.25-0.65z" clip-rule="evenodd" fill="url(#ap)" fill-rule="evenodd"/>
</symbol>
<symbol id="ba" viewBox="0 -3.35 3.4 3.35">
			<radialGradient id="aq" cx="1.7002" cy="-1.7002" r="1.6876" gradientTransform="matrix(1 0 0 -1 0 -3.4004)" gradientUnits="userSpaceOnUse">
			<stop stop-color="#FFCB0F" offset="0"/>
			<stop stop-color="#E09500" offset="1"/>
		</radialGradient>
		<path d="m3.4-1.7c0-0.466-0.167-0.85-0.5-1.15-0.333-0.333-0.733-0.5-1.2-0.5s-0.867 0.167-1.2 0.5c-0.333 0.3-0.5 0.683-0.5 1.15s0.167 0.867 0.5 1.2 0.733 0.5 1.2 0.5c0.466 0 0.867-0.167 1.2-0.5s0.5-0.733 0.5-1.2z" clip-rule="evenodd" fill="url(#aq)" fill-rule="evenodd"/>
</symbol>
<symbol id="bb" viewBox="0 -1.65 1.65 1.65">
			<radialGradient id="bh" cx="2.1445" cy="-2.1445" r=".4019" gradientTransform="matrix(1 0 0 -1 0 -4.2891)" gradientUnits="userSpaceOnUse">
			<stop stop-color="#FFCB0F" offset="0"/>
			<stop stop-color="#E09500" offset="1"/>
		</radialGradient>
		<path d="m1.65-0.8c0-0.567-0.283-0.85-0.85-0.85-0.533 0-0.8 0.283-0.8 0.85 0 0.533 0.267 0.8 0.8 0.8 0.233 0 0.434-0.083 0.6-0.25 0.167-0.133 0.25-0.317 0.25-0.55z" clip-rule="evenodd" fill="url(#bh)" fill-rule="evenodd"/>
</symbol>
<symbol id="bc" viewBox="0 -3.1 3.1 3.1">
			<radialGradient id="bi" cx="1.5498" cy="-1.5498" r="1.5248" gradientTransform="matrix(1 0 0 -1 0 -3.0996)" gradientUnits="userSpaceOnUse">
			<stop stop-color="#FFCB0F" offset="0"/>
			<stop stop-color="#E09500" offset="1"/>
		</radialGradient>
		<path d="m3.1-1.55c0-0.434-0.15-0.8-0.45-1.1s-0.667-0.45-1.1-0.45-0.8 0.15-1.1 0.45-0.45 0.667-0.45 1.1 0.15 0.8 0.45 1.1 0.667 0.45 1.1 0.45c0.434 0 0.8-0.15 1.1-0.45s0.45-0.667 0.45-1.1z" clip-rule="evenodd" fill="url(#bi)" fill-rule="evenodd"/>
</symbol>
<symbol id="bd" viewBox="0 -1.55 1.6 1.55">
			<radialGradient id="bj" cx="2.0796" cy="-2.0146" r=".3719" gradientTransform="matrix(1 0 0 -1 0 -4.0293)" gradientUnits="userSpaceOnUse">
			<stop stop-color="#FFCB0F" offset="0"/>
			<stop stop-color="#E09500" offset="1"/>
		</radialGradient>
		<path d="m1.6-0.8c0-0.2-0.083-0.383-0.25-0.55-0.133-0.133-0.317-0.2-0.55-0.2-0.533 0-0.8 0.25-0.8 0.75 0 0.533 0.267 0.8 0.8 0.8s0.8-0.267 0.8-0.8z" clip-rule="evenodd" fill="url(#bj)" fill-rule="evenodd"/>
</symbol>
<symbol id="be" viewBox="0 -2.65 2.65 2.65">
			<radialGradient id="bk" cx="1.3501" cy="-1.2998" r="1.3252" gradientTransform="matrix(1 0 0 -1 0 -2.5996)" gradientUnits="userSpaceOnUse">
			<stop stop-color="#FFCB0F" offset="0"/>
			<stop stop-color="#E09500" offset="1"/>
		</radialGradient>
		<path d="m2.65-1.3c0-0.367-0.133-0.684-0.4-0.95s-0.583-0.4-0.95-0.4-0.667 0.133-0.9 0.4c-0.267 0.267-0.4 0.583-0.4 0.95 0 0.333 0.133 0.633 0.4 0.9s0.567 0.4 0.9 0.4c0.367 0 0.684-0.133 0.95-0.4 0.267-0.233 0.4-0.533 0.4-0.9z" clip-rule="evenodd" fill="url(#bk)" fill-rule="evenodd"/>
</symbol>
<symbol id="bf" viewBox="0 -26.6 30.15 26.6">
			<linearGradient id="bl" x1="12.971" x2="35.946" y1="-16331" y2="-16331" gradientTransform="matrix(4.3526e-5 -1 1 -.001 16346 -6.1724)" gradientUnits="userSpaceOnUse">
			<stop stop-color="#D68000" offset="0"/>
			<stop stop-color="#F2BE00" offset="1"/>
		</linearGradient>
		<path d="m30.15 0v-20.8c0-1.034-0.367-1.983-1.1-2.85-0.733-0.833-1.7-1.434-2.9-1.8l-0.25-0.1-0.85-0.15c-3.433-0.6-6.633-0.9-9.6-0.9-2.7 0-5.25 0.133-7.65 0.4-2.2 0.267-3.566 0.55-4.1 0.85-1.1 0.4-1.983 1-2.65 1.8-0.7 0.833-1.05 1.75-1.05 2.75v20.75c1.333-0.567 3.333-1.017 6-1.35 2.733-0.333 5.75-0.5 9.05-0.5 3.333 0 6.367 0.167 9.1 0.5 2.7 0.367 4.7 0.833 6 1.4z" clip-rule="evenodd" fill="url(#bl)" fill-rule="evenodd"/>
</symbol>
<symbol id="bg" viewBox="0 -33.35 32.5 33.35">
		<linearGradient id="bm" x2="32.45" y1="-16.675" y2="-16.675" gradientUnits="userSpaceOnUse">
			<stop stop-color="#fff" offset="0"/>
			<stop stop-color="#CC9C74" offset="1"/>
		</linearGradient>
		<path d="m30-2c0.233-0.267 0.717-0.8 1.45-1.6 0.667-0.9 1.017-1.883 1.05-2.95v-18.6c0-1.4-0.4-2.684-1.2-3.85-0.8-1.133-1.85-1.95-3.15-2.45l-1.15-0.3c-1.667-0.433-3.1-0.75-4.3-0.95-2.133-0.433-4.167-0.65-6.1-0.65-2.767 0-5.5 0.25-8.2 0.75-2.3 0.434-3.767 0.867-4.4 1.3-1.2 0.533-2.167 1.35-2.9 2.45s-1.1 2.333-1.1 3.7v18.6c0.033 1.067 0.383 2.05 1.05 2.95 0.367 0.467 0.85 1 1.45 1.6 0.467 0.467 0.733 1.133 0.8 2h25.9c0.033-0.233 0.083-0.483 0.15-0.75 0.133-0.533 0.35-0.95 0.65-1.25z" clip-rule="evenodd" fill="url(#bm)" fill-rule="evenodd"/>
</symbol>
<symbol id="bp" viewBox="-0.003 -23.528 30.753 23.53">
			<linearGradient id="bn" x1="-15.744" x2="5.9059" y1="-16312" y2="-16312" gradientTransform="matrix(.0023 -1 1 .0023 16327 20.852)" gradientUnits="userSpaceOnUse">
			<stop stop-color="#fa0" offset="0"/>
			<stop stop-color="#fb3" offset="1"/>
		</linearGradient>
		<path d="m30.6-2.8c0.1-0.434 0.083-0.784-0.05-1.05-0.066-0.133-0.267-0.4-0.6-0.8-0.2-0.3-0.267-0.617-0.2-0.95 0.033-0.3 0.2-0.75 0.5-1.35 0.333-0.633 0.5-0.966 0.5-1 0-0.167-0.233-0.4-0.7-0.7-0.8-0.533-1.167 0.167-1.1 2.1 0 0.433 0.15 1.066 0.45 1.9 0.233 0.633 0.267 1.066 0.1 1.3-0.2 0.267-0.65 0.317-1.35 0.15-0.967-0.333-1.783-0.583-2.45-0.75-0.534-0.133-1.5-0.267-2.9-0.4-1.066-0.1-1.85-0.283-2.35-0.55-0.534-0.3-0.75-0.633-0.65-1 0.067-0.233 0.25-0.733 0.55-1.5 0.167-0.733 0.033-1.283-0.4-1.65-0.434-0.333-0.917-0.217-1.45 0.35-0.4 0.4-0.567 0.867-0.5 1.4 0.067 0.7 0.017 1.233-0.15 1.6-0.233 0.633-0.967 0.983-2.2 1.05-1.133 0.066-2.017-0.133-2.65-0.6-0.633-0.433-1.217-1.267-1.75-2.5-0.567-1.333-0.867-2.717-0.9-4.15-0.033-1.1 0.1-2.767 0.4-5 0.333-2.333 0.5-3.883 0.5-4.65 0-1.167-0.217-1.817-0.65-1.95-0.333-0.1-0.8 0.067-1.4 0.5-0.733 0.533-0.75 2.45-0.05 5.75 0.367 1.633 0.383 3.683 0.05 6.15-0.367 2.667-1 4.333-1.9 5-0.567 0.4-2.05 1.017-4.45 1.85-1.967 0.667-2.917 1.167-2.85 1.5 0.133 0.5 0.233 0.767 0.3 0.8 0.1 0.133 0.5 0.333 1.2 0.6 2.233 0.867 6.683 1.317 13.35 1.35 4.667 0.033 8.583-0.317 11.75-1.05 2.567-0.567 3.9-1.15 4-1.75z" clip-rule="evenodd" fill="url(#bn)" fill-rule="evenodd"/>
</symbol>
<use transform="matrix(.9769 0 0 -.9769 .5 6.8501)" y="-33.35" width="32.5" height="33.35" enable-background="new" opacity=".4805" xlink:href="#bg"/>
<use transform="matrix(.9769 0 0 -.9769 1.6499 12.3)" y="-26.6" width="30.15" height="26.6" enable-background="new" opacity=".8984" xlink:href="#bf"/>
<path d="m5.135 37.026c0.423-0.978 4.201-1.597 11.333-1.856 2.442-0.065 4.819-0.017 7.131 0.146 2.572 0.228 4.396 0.554 5.471 0.977-0.781 0.455-1.4 0.749-1.856 0.879l-0.244 0.099-0.83 0.146c-3.354 0.587-6.48 0.88-9.379 0.88-2.637 0-5.128-0.131-7.473-0.392-2.149-0.26-3.485-0.537-4.005-0.83l-0.148-0.049z" clip-rule="evenodd" fill="#E39700" fill-rule="evenodd"/>
<use transform="matrix(.9769 0 0 -.9769 11.85 22)" y="-2.65" width="2.65" height="2.65" enable-background="new" opacity=".8984" xlink:href="#be"/>
<use transform="matrix(.9769 0 0 -.9769 14.6 20.1)" y="-1.55" width="1.6" height="1.55" enable-background="new" opacity=".8984" xlink:href="#bd"/>
<use transform="matrix(.9769 0 0 -.9769 12.9 28.95)" y="-3.1" width="3.1" height="3.1" enable-background="new" opacity=".8984" xlink:href="#bc"/>
<use transform="matrix(.9769 0 0 -.9769 21.05 31.55)" y="-1.65" width="1.65" height="1.65" enable-background="new" opacity=".8984" xlink:href="#bb"/>
<use transform="matrix(.9769 0 0 -.9769 20.35 26.65)" y="-3.35" width="3.4" height="3.35" enable-background="new" opacity=".8984" xlink:href="#ba"/>
<use transform="matrix(.9769 0 0 -.9769 6.9502 24.3)" y="-1.75" width="1.75" height="1.75" enable-background="new" opacity=".8984" xlink:href="#az"/>
<use transform="matrix(.9769 0 0 -.9769 7.8999 20.25)" y="-0.5" width="0.5" height="0.5" enable-background="new" opacity=".8984" xlink:href="#ax"/>
<use transform="matrix(.9769 0 0 -.9769 28.45 14.6)" y="-1.8" width="1.8" height="1.8" enable-background="new" opacity=".8984" xlink:href="#aw"/>
<use transform="matrix(.9769 0 0 -.9769 24.65 15)" y="-0.95" width="0.95" height="0.95" enable-background="new" opacity=".8984" xlink:href="#av"/>
<use transform="matrix(.9769 0 0 -.9769 1.6001 9.3999)" y="-5.7" width="30.25" height="5.7" enable-background="new" opacity=".8984" xlink:href="#au"/>
<use transform="matrix(.9769 0 0 -.9769 3.8999 6.8501)" y="-32.05" width="5.412" height="32.05" enable-background="new" xlink:href="#at"/>
<path d="m29.802 8.792c-0.293-0.293-0.504-0.7-0.635-1.221l-0.146-0.733h-25.303c-0.065 0.847-0.325 1.498-0.781 1.954-0.195 0.26-0.667 0.781-1.417 1.563-0.651 0.879-0.993 1.84-1.026 2.882v18.171c0 1.335 0.358 2.54 1.075 3.614 0.717 1.075 1.661 1.873 2.833 2.394 0.651 0.424 1.84 0.781 3.566 1.075 2.214 0.391 4.999 0.586 8.353 0.586 3.289 0 5.763-0.146 7.424-0.439 0.944-0.162 1.986-0.424 3.126-0.781l1.124-0.293c1.27-0.489 2.296-1.286 3.077-2.394 0.781-1.141 1.172-2.395 1.172-3.762v-18.171c-0.032-1.042-0.375-2.002-1.025-2.882-0.717-0.781-1.189-1.302-1.417-1.563z" clip-rule="evenodd" fill="none" stroke="#F8DA9F" stroke-width=".5"/>
<path d="m16.321 11.821c1.335-0.032 2.116 0.016 2.344 0.146 0.26 0.13-0.7 0.261-2.882 0.391-1.628 0.098-2.931 0.098-3.908 0-1.075-0.163-1.449-0.423-1.124-0.781 0.13-0.13 0.586-0.13 1.368 0 1.303 0.195 2.703 0.277 4.202 0.244z" clip-rule="evenodd" fill="#fff" fill-rule="evenodd"/>
<use transform="matrix(.9769 0 0 -.9769 26 14.9)" y="-17.944" width="3.5" height="17.944" enable-background="new" opacity=".3516" xlink:href="#as"/>
<use transform="matrix(.9769 0 0 -.9769 2.7002 3.1499)" y="-3.9" width="28.2" height="3.9" enable-background="new" opacity=".4805" xlink:href="#ar"/>
<rect x="2.692" y="3.126" width="27.55" height="3.81" clip-rule="evenodd" fill="none" stroke="#C4A76E" stroke-width=".5"/>
<path d="m27.751 2.296c0.781-0.13 1.221-0.065 1.318 0.195 0.098 0.293-0.113 0.554-0.636 0.782-0.455 0.195-0.813 0.114-1.074-0.244-0.259-0.391-0.13-0.635 0.392-0.733z" clip-rule="evenodd" fill="#D1B162" fill-rule="evenodd"/>
<path d="m26.236 1.612c0.456 0 0.586 0.277 0.391 0.831-0.163 0.554-0.472 0.684-0.928 0.391-0.456-0.26-0.586-0.537-0.391-0.831 0.195-0.261 0.505-0.391 0.928-0.391z" clip-rule="evenodd" fill="#D1B162" fill-rule="evenodd"/>
<path d="m31.463 6.937c0 0.619-1.465 1.139-4.396 1.563-2.931 0.456-6.464 0.684-10.599 0.684-5.21 0-9.33-0.325-12.358-0.977-1.76-0.359-2.639-0.782-2.639-1.27 0-0.619 1.465-1.14 4.396-1.563s6.464-0.635 10.6-0.635c4.167 0 7.702 0.212 10.599 0.635 2.932 0.422 4.397 0.943 4.397 1.563z" clip-rule="evenodd" fill="#F8E5BF" fill-rule="evenodd"/>
<path d="m1.471 6.937c0-0.391 0.407-0.717 1.221-0.977 0.814-0.228 1.352-0.342 1.612-0.342l1.221 0.635c-0.651 0.129-1.155 0.309-1.514 0.537-0.716 0.423-0.358 0.847 1.075 1.27l2.051 0.635c-1.367-0.163-2.377-0.326-3.028-0.489-1.759-0.358-2.638-0.781-2.638-1.269z" clip-rule="evenodd" fill="#C4A76E" fill-rule="evenodd"/>
<path d="m31.561 6.937c0 0.488-0.896 0.911-2.687 1.27-0.717 0.163-1.71 0.326-2.979 0.488l2.051-0.635c1.4-0.423 1.743-0.847 1.026-1.27l-1.465-0.538 1.221-0.635 1.611 0.342c0.815 0.261 1.222 0.586 1.222 0.978z" clip-rule="evenodd" fill="#C4A76E" fill-rule="evenodd"/>
<path d="m2.839 6.692l0.684-1.27 26.621 0.195c-0.064 0.358-0.667 0.717-1.807 1.075-2.279 0.782-6.09 1.237-11.431 1.368-5.34 0.13-9.281-0.065-11.82-0.586-1.27-0.228-2.019-0.489-2.247-0.782z" clip-rule="evenodd" fill="#C4A76E" fill-rule="evenodd"/>
<path d="m31.463 4.982c0 0.619-1.465 1.14-4.396 1.563-2.897 0.423-6.432 0.635-10.599 0.635-4.136 0-7.669-0.212-10.6-0.635s-4.397-0.944-4.397-1.563 1.465-1.14 4.396-1.563 6.464-0.635 10.6-0.635c4.167 0 7.702 0.212 10.599 0.635 2.932 0.423 4.397 0.945 4.397 1.563z" clip-rule="evenodd" fill="#F8E5BF" fill-rule="evenodd"/>
<path d="m1.471 4.982c0-0.26 0.391-0.554 1.172-0.879 0.782-0.098 1.547-0.146 2.296-0.146l0.586 0.342c-0.651 0.13-1.155 0.293-1.514 0.488-0.716 0.423-0.358 0.863 1.075 1.319l2.051 0.586-3.028-0.44c-1.759-0.423-2.638-0.846-2.638-1.27z" clip-rule="evenodd" fill="#C4A76E" fill-rule="evenodd"/>
<path d="m31.561 4.982c0 0.423-0.896 0.847-2.687 1.27l-2.979 0.439 2.051-0.586c1.4-0.456 1.743-0.896 1.026-1.319l-1.465-0.488 0.586-0.342 2.295 0.147c0.782 0.326 1.173 0.619 1.173 0.879z" clip-rule="evenodd" fill="#C4A76E" fill-rule="evenodd"/>
<path d="m2.79 4.836l0.684-1.319 26.621 0.195c-0.064 0.358-0.668 0.733-1.807 1.124-2.28 0.749-6.09 1.188-11.43 1.318-5.341 0.13-9.281-0.048-11.821-0.537-1.27-0.228-2.019-0.488-2.247-0.781z" clip-rule="evenodd" fill="#C4A76E" fill-rule="evenodd"/>
<path d="m31.463 2.931c0 0.749-1.465 1.368-4.396 1.856-2.897 0.521-6.432 0.782-10.599 0.782-4.136 0-7.669-0.261-10.6-0.782s-4.397-1.14-4.397-1.856 1.465-1.335 4.396-1.856c2.963-0.521 6.497-0.782 10.6-0.782 4.135 0 7.668 0.261 10.599 0.782 2.932 0.521 4.397 1.139 4.397 1.856z" clip-rule="evenodd" fill="#F8E5BF" fill-rule="evenodd"/>
<path d="m26.09 7.669c0.749-0.098 1.091-0.098 1.025 0-0.064 0.065-0.456 0.163-1.172 0.293-1.042 0.228-2.671 0.423-4.885 0.586-3.028 0.228-6.041 0.292-9.037 0.195-2.93-0.097-4.59-0.293-4.981-0.586-0.424-0.325 0.195-0.407 1.856-0.244 5.438 0.521 11.169 0.44 17.194-0.244z" clip-rule="evenodd" fill="#fff" fill-rule="evenodd"/>
<path d="m26.041 5.715c0.749-0.098 1.091-0.098 1.025 0-0.064 0.064-0.455 0.179-1.172 0.342-4.005 0.716-8.646 0.96-13.921 0.733-2.931-0.098-4.592-0.293-4.982-0.586-0.424-0.326 0.196-0.408 1.856-0.245 5.438 0.521 11.17 0.44 17.194-0.244z" clip-rule="evenodd" fill="#fff" fill-rule="evenodd"/>
<path d="m25.991 4.054c0.749-0.098 1.092-0.098 1.027 0-0.066 0.065-0.456 0.179-1.173 0.342-4.005 0.717-8.645 0.961-13.921 0.733-2.93-0.098-4.591-0.293-4.982-0.587-0.423-0.325 0.195-0.406 1.856-0.244 5.439 0.521 11.17 0.44 17.193-0.244z" clip-rule="evenodd" fill="#fff" fill-rule="evenodd"/>
<use transform="matrix(.9769 0 0 -.9769 1.7002 0)" x="-0.003" y="-23.528" width="30.753" height="23.53" enable-background="new" opacity=".6484" xlink:href="#bp"/>
<linearGradient id="bo" x1="3.3999" x2="30.201" y1="2.5254" y2="2.5254" gradientTransform="matrix(.9769 0 0 .9769 .2502 0)" gradientUnits="userSpaceOnUse">
	<stop stop-color="#BA7200" offset="0"/>
	<stop stop-color="#FFD47D" offset="1"/>
</linearGradient>
<path d="m29.754 2.442c0 0.488-1.271 0.912-3.811 1.27-2.572 0.326-5.666 0.489-9.281 0.489-3.614 0-6.691-0.163-9.231-0.489-2.573-0.358-3.859-0.781-3.859-1.27 0-0.456 1.287-0.863 3.859-1.221 2.54-0.326 5.617-0.488 9.231-0.488 3.615 0 6.709 0.163 9.281 0.488 2.54 0.359 3.811 0.765 3.811 1.221z" clip-rule="evenodd" fill="url(#bo)" fill-rule="evenodd"/>
<use transform="matrix(.9769 0 0 -.9769 10.35 19.1)" x="-0.005" y="-3.313" width="1.317" height="3.388" enable-background="new" opacity=".8984" xlink:href="#ay"/>
<path d="m20.277 6.252c0.032 0.163 0.212 0.554 0.537 1.172 0.228 0.553 0.195 0.879-0.098 0.977-0.326 0.098-0.57 0.016-0.732-0.245-0.131-0.228-0.195-0.538-0.195-0.928 0-0.619-0.114-1.335-0.342-2.149-0.033-0.195 0.081-0.13 0.342 0.195 0.228 0.327 0.391 0.653 0.488 0.978z" clip-rule="evenodd" fill="#FFE0A1" fill-rule="evenodd"/>
<path d="m9.14 4.933c0.325 0.196 0.733 0.701 1.221 1.515 0.521 0.847 0.733 1.417 0.635 1.709-0.065 0.261-0.163 0.293-0.293 0.098-0.033-0.065-0.195-0.375-0.488-0.928-0.228-0.423-0.57-0.895-1.026-1.417-0.489-0.521-0.896-0.879-1.221-1.074-0.359-0.195-0.326-0.261 0.097-0.195 0.424 0.032 0.782 0.13 1.075 0.292z" clip-rule="evenodd" fill="#FFE0A1" fill-rule="evenodd"/>
<path d="m30.828 6.937c0.292 0.781 0.276 1.221-0.049 1.319-0.392 0.13-0.586-0.049-0.586-0.538 0-0.391 0.081-0.667 0.244-0.831 0.195-0.162 0.326-0.146 0.391 0.05z" clip-rule="evenodd" fill="#FFE0A1" fill-rule="evenodd"/>
</svg>